<svg xmlns="http://www.w3.org/2000/svg" viewBox="0 0 24 24" fill="currentColor">
  <path d="M12 2C6.48 2 2 6.58 2 12.22c0 4.5 2.87 8.32 6.84 9.67.5.1.68-.22.68-.49 0-.24-.01-1.03-.01-1.87-2.78.62-3.37-1.2-3.37-1.2-.45-1.18-1.11-1.49-1.11-1.49-.91-.64.07-.63.07-.63 1 .07 1.53 1.06 1.53 1.06.9 1.57 2.36 1.12 2.93.86.09-.67.35-1.12.63-1.38-2.22-.26-4.56-1.14-4.56-5.09 0-1.13.39-2.05 1.03-2.77-.1-.26-.45-1.31.1-2.72 0 0 .84-.28 2.75 1.06A9.3 9.3 0 0112 6.84c.85 0 1.71.12 2.51.35 1.91-1.34 2.75-1.06 2.75-1.06.55 1.41.2 2.46.1 2.72.64.72 1.03 1.64 1.03 2.77 0 3.96-2.34 4.82-4.57 5.08.36.32.68.94.68 1.9 0 1.37-.01 2.47-.01 2.81 0 .27.18.59.69.49A10.23 10.23 0 0022 12.22C22 6.58 17.52 2 12 2z"/>
</svg>